<svg width="131" height="131" viewBox="0 0 131 131" fill="none" xmlns="http://www.w3.org/2000/svg">
<path d="M62.2144 39.7588V4.05699C62.2144 2.86858 60.7953 2.25378 59.9281 3.06652L35.9188 25.5684C35.4559 26.0022 35.3553 26.6988 35.6764 27.2459L50.408 52.3476C50.8934 53.1747 52.0603 53.2515 52.6499 52.4951L61.9276 40.5933C62.1135 40.3548 62.2144 40.0611 62.2144 39.7588Z" fill="#B23A48"/>
<path d="M42.9343 79.459V75.2457C42.9343 74.7469 42.6608 74.2883 42.2218 74.0512L22.5479 63.4263C21.7466 62.9936 20.7548 63.4567 20.5724 64.3488L17.5381 79.1871C17.366 80.0287 18.0092 80.8166 18.8684 80.8166H41.5766C42.3264 80.8166 42.9343 80.2088 42.9343 79.459Z" fill="#B23A48"/>
<path d="M61.402 101.095L59.5342 100.276C58.8689 99.9845 58.0919 100.268 57.7709 100.919L45.4029 126.019C45.0116 126.813 45.4728 127.763 46.3388 127.947L60.5746 130.97C61.4192 131.149 62.2144 130.505 62.2144 129.642V102.339C62.2144 101.8 61.8956 101.312 61.402 101.095Z" fill="#B23A48"/>
<path d="M82.5309 59.8925L86.1563 66.1067C86.5408 66.7657 87.3928 66.9786 88.0421 66.5779L107.138 54.7957C107.783 54.398 107.977 53.5498 107.57 52.911L98.2322 38.2554C97.704 37.4264 96.4972 37.416 95.9548 38.2357L82.5714 58.4594C82.2861 58.8904 82.2704 59.4461 82.5309 59.8925Z" fill="#B23A48"/>
<path d="M48.31 58.5205L33.2439 33.9877C32.7105 33.1191 31.4457 33.1262 30.922 34.0007L19.6459 52.8303C19.2431 53.503 19.4923 54.3761 20.1896 54.7348L43.4101 66.6804C44.0824 67.0262 44.9076 66.7564 45.2457 66.0804L48.3673 59.838C48.5772 59.4184 48.5555 58.9202 48.31 58.5205Z" fill="#335666"/>
<path d="M46.4836 89.8757L44.9971 86.6908C44.7741 86.2129 44.2943 85.9074 43.7668 85.9074H14.492C13.5224 85.9074 12.8653 86.8942 13.2393 87.7886L20.3408 104.773C20.6574 105.53 21.5685 105.836 22.2776 105.422L45.9374 91.6224C46.5436 91.2688 46.7804 90.5116 46.4836 89.8757Z" fill="#335666"/>
<path d="M80.0407 95.2712L77.7768 98.0378C77.4031 98.4945 77.3673 99.1402 77.6881 99.6355L92.4863 122.48C92.9482 123.193 93.9441 123.311 94.5604 122.727L105.371 112.472C106.006 111.87 105.913 110.834 105.183 110.353L81.8378 94.9967C81.2569 94.6146 80.4811 94.7331 80.0407 95.2712Z" fill="#335666"/>
<path d="M87.6043 73.8713V78.7451C87.6043 79.4819 88.1922 80.0842 88.9288 80.1023L116.474 80.777C117.316 80.7976 117.974 80.0548 117.851 79.2218L114.98 59.7609C114.841 58.8185 113.8 58.3086 112.97 58.7765L88.2952 72.6888C87.8684 72.9295 87.6043 73.3814 87.6043 73.8713Z" fill="#335666"/>
<path d="M53.0063 97.1742L52.1318 96.5759C51.6975 96.2788 51.1306 96.2594 50.677 96.526L30.8293 108.192C29.9795 108.692 29.9285 109.902 30.7333 110.471L41.6644 118.202C42.3361 118.677 43.2727 118.45 43.6527 117.721L53.4439 98.9217C53.7612 98.3124 53.5734 97.5621 53.0063 97.1742Z" fill="#FCCFC2"/>
<path d="M71.3695 100.17L68.8959 101.106C68.3514 101.313 67.999 101.843 68.02 102.425L68.9371 127.795C68.97 128.705 69.8712 129.325 70.7326 129.031L84.3676 124.377C85.1693 124.103 85.5274 123.171 85.1148 122.431L73.0363 100.778C72.7083 100.19 71.9991 99.9312 71.3695 100.17Z" fill="#FCCFC2"/>
<path d="M86.5136 85.3655L85.1996 89.0007C84.9795 89.6096 85.22 90.2891 85.7742 90.624L105.21 102.369C105.939 102.809 106.888 102.478 107.185 101.681L112.42 87.632C112.739 86.7754 112.137 85.8547 111.225 85.8027L87.8678 84.4717C87.2684 84.4375 86.7177 84.801 86.5136 85.3655Z" fill="#FCCFC2"/>
<path d="M67.6793 40.6369L78.5821 52.6578C79.2097 53.3497 80.3324 53.2159 80.7798 52.3959L95.2644 25.8444C95.5528 25.3157 95.4584 24.6602 95.0325 24.2344L71.1948 0.399945C70.358 -0.436716 68.9258 0.122854 68.8781 1.30511L67.3284 39.6701C67.314 40.0259 67.44 40.3731 67.6793 40.6369Z" fill="#FCCFC2"/>
<path d="M83.4632 75.6578C83.4632 85.7046 75.3175 93.8492 65.2693 93.8492C55.2211 93.8492 47.0754 85.7046 47.0754 75.6578C47.0754 67.0078 60.562 51.7173 64.3121 47.6328C64.8349 47.0633 65.7037 47.0633 66.2266 47.6328C69.9767 51.7173 83.4632 67.0078 83.4632 75.6578Z" fill="#335666"/>
</svg>
