<svg width="36" height="36" viewBox="0 0 36 36" fill="none" xmlns="http://www.w3.org/2000/svg">
<path d="M17.0975 10.9261V1.1149C17.0975 0.788311 16.7075 0.619361 16.4692 0.842707L9.87119 7.02642C9.74397 7.14565 9.71631 7.33706 9.80455 7.48742L13.8529 14.3856C13.9863 14.6129 14.307 14.634 14.469 14.4261L17.0186 11.1554C17.0697 11.0899 17.0975 11.0092 17.0975 10.9261Z" fill="#B23A48"/>
<path d="M11.7991 21.8361V20.6782C11.7991 20.5411 11.7239 20.4151 11.6033 20.35L6.19672 17.4301C5.97652 17.3112 5.70397 17.4385 5.65384 17.6836L4.82 21.7613C4.7727 21.9926 4.94945 22.2091 5.18556 22.2091H11.426C11.6321 22.2091 11.7991 22.0421 11.7991 21.8361Z" fill="#B23A48"/>
<path d="M16.8742 27.7819L16.3609 27.5568C16.1781 27.4766 15.9645 27.5545 15.8763 27.7336L12.4775 34.6313C12.37 34.8495 12.4967 35.1105 12.7347 35.1611L16.6468 35.9917C16.8789 36.041 17.0975 35.864 17.0975 35.6268V28.1236C17.0975 27.9755 17.0098 27.8414 16.8742 27.7819Z" fill="#B23A48"/>
<path d="M22.6806 16.459L23.6769 18.1667C23.7826 18.3478 24.0167 18.4063 24.1951 18.2962L29.4429 15.0584C29.62 14.9491 29.6734 14.716 29.5616 14.5404L26.9955 10.5129C26.8503 10.2851 26.5187 10.2823 26.3696 10.5075L22.6917 16.0652C22.6133 16.1836 22.609 16.3363 22.6806 16.459Z" fill="#B23A48"/>
<path d="M13.2764 16.082L9.13609 9.34013C8.9895 9.10144 8.64192 9.10338 8.498 9.3437L5.39924 14.5182C5.28853 14.7031 5.35703 14.943 5.54866 15.0416L11.9299 18.3244C12.1146 18.4194 12.3414 18.3453 12.4343 18.1595L13.2921 16.444C13.3498 16.3287 13.3438 16.1918 13.2764 16.082Z" fill="#335666"/>
<path d="M12.7745 24.6987L12.366 23.8234C12.3047 23.6921 12.1728 23.6081 12.0279 23.6081H3.98289C3.71645 23.6081 3.53587 23.8793 3.63864 24.1251L5.5902 28.7926C5.67721 29.0007 5.92759 29.0846 6.12245 28.9709L12.6244 25.1787C12.791 25.0815 12.856 24.8734 12.7745 24.6987Z" fill="#335666"/>
<path d="M21.9963 26.1814L21.3741 26.9417C21.2715 27.0672 21.2616 27.2446 21.3498 27.3807L25.4165 33.6586C25.5434 33.8545 25.8171 33.8871 25.9864 33.7264L28.9572 30.9083C29.1316 30.7429 29.1063 30.4581 28.9055 30.326L22.4901 26.106C22.3305 26.0009 22.1173 26.0335 21.9963 26.1814Z" fill="#335666"/>
<path d="M24.0748 20.3005V21.6399C24.0748 21.8424 24.2364 22.0079 24.4388 22.0128L32.0085 22.1983C32.2399 22.2039 32.4206 21.9998 32.3868 21.7709L31.5979 16.4228C31.5597 16.1639 31.2736 16.0237 31.0455 16.1523L24.2647 19.9756C24.1474 20.0417 24.0748 20.1659 24.0748 20.3005Z" fill="#335666"/>
<path d="M14.567 26.7044L14.3267 26.54C14.2073 26.4583 14.0515 26.453 13.9269 26.5262L8.47253 29.7323C8.239 29.8696 8.22499 30.2021 8.44616 30.3585L11.4501 32.4829C11.6347 32.6135 11.8921 32.5512 11.9965 32.3507L14.6872 27.1846C14.7744 27.0171 14.7228 26.811 14.567 26.7044Z" fill="#FCCFC2"/>
<path d="M19.6134 27.5275L18.9336 27.785C18.7839 27.8417 18.6871 27.9874 18.6929 28.1473L18.9449 35.1192C18.954 35.3692 19.2016 35.5396 19.4383 35.4588L23.1853 34.1799C23.4057 34.1047 23.5041 33.8484 23.3907 33.6451L20.0714 27.6947C19.9813 27.5331 19.7864 27.462 19.6134 27.5275Z" fill="#FCCFC2"/>
<path d="M23.7751 23.4592L23.414 24.4582C23.3535 24.6255 23.4196 24.8123 23.5719 24.9043L28.9131 28.1319C29.1133 28.2529 29.3741 28.162 29.4558 27.9429L30.8943 24.0821C30.982 23.8467 30.8167 23.5937 30.5659 23.5794L24.1472 23.2136C23.9825 23.2042 23.8312 23.3041 23.7751 23.4592Z" fill="#FCCFC2"/>
<path d="M18.5992 11.1674L21.5954 14.4708C21.7679 14.661 22.0764 14.6242 22.1994 14.3989L26.1799 7.10228C26.2591 6.95699 26.2332 6.77686 26.1162 6.65983L19.5653 0.109908C19.3354 -0.120014 18.9418 0.0337615 18.9287 0.358656L18.5028 10.9017C18.4989 10.9995 18.5335 11.0949 18.5992 11.1674Z" fill="#FCCFC2"/>
<path d="M22.9368 20.7915C22.9368 23.5524 20.6983 25.7906 17.937 25.7906C15.1756 25.7906 12.9371 23.5524 12.9371 20.7915C12.9371 18.4144 16.6433 14.2124 17.6739 13.0899C17.8176 12.9334 18.0563 12.9334 18.2 13.0899C19.2306 14.2124 22.9368 18.4144 22.9368 20.7915Z" fill="#335666"/>
</svg>
