<svg width="1437" height="1368" viewBox="0 0 1437 1368" fill="none" xmlns="http://www.w3.org/2000/svg">
<path d="M693.449 265.298V27.071C693.449 19.1411 683.978 15.0388 678.19 20.4619L517.947 170.61C514.857 173.505 514.185 178.152 516.328 181.803L614.65 349.299C617.89 354.818 625.678 355.33 629.614 350.283L691.535 270.866C692.776 269.275 693.449 267.315 693.449 265.298Z" fill="#B23A48"/>
<path d="M564.77 530.205V502.091C564.77 498.762 562.944 495.702 560.014 494.12L428.706 423.224C423.358 420.336 416.738 423.427 415.521 429.379L395.269 528.39C394.121 534.006 398.413 539.263 404.148 539.263H555.708C560.712 539.263 564.77 535.208 564.77 530.205Z" fill="#B23A48"/>
<path d="M688.027 674.577L675.561 669.111C671.121 667.165 665.935 669.056 663.792 673.403L581.245 840.887C578.634 846.185 581.712 852.524 587.492 853.751L682.505 873.92C688.142 875.117 693.449 870.82 693.449 865.059V682.873C693.449 679.277 691.322 676.021 688.027 674.577Z" fill="#B23A48"/>
<path d="M829.046 399.644L853.243 441.109C855.809 445.506 861.495 446.927 865.829 444.253L993.28 365.634C997.582 362.98 998.88 357.321 996.164 353.058L933.84 255.266C930.315 249.735 922.261 249.665 918.64 255.135L829.316 390.081C827.412 392.957 827.308 396.665 829.046 399.644Z" fill="#B23A48"/>
<path d="M600.648 390.489L500.093 226.789C496.533 220.993 488.092 221.04 484.596 226.876L409.337 352.519C406.649 357.008 408.312 362.834 412.966 365.228L567.945 444.937C572.432 447.245 577.94 445.445 580.196 440.933L601.031 399.28C602.431 396.48 602.286 393.156 600.648 390.489Z" fill="#335666"/>
<path d="M588.458 599.712L578.537 578.46C577.048 575.271 573.846 573.233 570.325 573.233H374.939C368.468 573.233 364.082 579.817 366.578 585.785L413.975 699.117C416.088 704.17 422.169 706.207 426.902 703.448L584.812 611.367C588.859 609.008 590.439 603.955 588.458 599.712Z" fill="#335666"/>
<path d="M812.426 635.714L797.317 654.175C794.822 657.222 794.583 661.531 796.724 664.836L895.491 817.269C898.574 822.026 905.22 822.817 909.334 818.916L981.485 750.49C985.721 746.473 985.107 739.559 980.229 736.351L824.42 633.883C820.543 631.333 815.365 632.124 812.426 635.714Z" fill="#335666"/>
<path d="M862.908 492.92V525.441C862.908 530.358 866.831 534.377 871.748 534.497L1055.59 538.999C1061.21 539.137 1065.6 534.18 1064.78 528.622L1045.62 398.766C1044.69 392.477 1037.74 389.075 1032.2 392.197L867.518 485.03C864.67 486.635 862.908 489.651 862.908 492.92Z" fill="#335666"/>
<path d="M631.992 648.413L626.156 644.42C623.257 642.438 619.474 642.308 616.446 644.088L483.978 721.934C478.306 725.267 477.966 733.341 483.337 737.139L556.294 788.723C560.777 791.893 567.028 790.38 569.564 785.512L634.913 660.073C637.031 656.007 635.777 651.001 631.992 648.413Z" fill="#FCCFC2"/>
<path d="M754.553 668.4L738.043 674.651C734.409 676.028 732.057 679.567 732.197 683.45L738.318 852.735C738.538 858.805 744.552 862.943 750.302 860.981L841.305 829.927C846.655 828.102 849.045 821.878 846.291 816.942L765.677 672.459C763.488 668.536 758.754 666.809 754.553 668.4Z" fill="#FCCFC2"/>
<path d="M855.628 569.617L846.858 593.873C845.389 597.936 846.994 602.471 850.693 604.705L980.414 683.075C985.276 686.012 991.61 683.805 993.593 678.485L1028.53 584.74C1030.66 579.025 1026.65 572.881 1020.55 572.534L864.666 563.653C860.665 563.425 856.99 565.85 855.628 569.617Z" fill="#FCCFC2"/>
<path d="M729.923 271.157L802.691 351.369C806.879 355.986 814.373 355.093 817.359 349.621L914.033 172.452C915.958 168.924 915.327 164.55 912.485 161.708L753.386 2.6687C747.802 -2.91407 738.243 0.819768 737.924 8.70857L727.581 264.706C727.485 267.08 728.326 269.397 729.923 271.157Z" fill="#FCCFC2"/>
<path d="M835.269 504.84C835.269 571.88 780.902 626.226 713.838 626.226C646.774 626.226 592.408 571.88 592.408 504.84C592.408 447.122 682.421 345.093 707.45 317.839C710.939 314.039 716.738 314.039 720.227 317.839C745.256 345.093 835.269 447.122 835.269 504.84Z" fill="#335666"/>
<path d="M130.624 1010.83C156.854 1010.83 179.543 1016.08 198.69 1026.57C218.1 1036.8 232.92 1052.14 243.15 1072.59C253.642 1092.78 258.887 1117.96 258.887 1148.11C258.887 1179.06 253.773 1205.02 243.543 1226C233.576 1246.72 219.018 1262.45 199.871 1273.2C180.985 1283.95 158.165 1289.33 131.411 1289.33H0V1285.4L24.0002 1280.28V1019.09L0 1014.77V1010.83H130.624ZM120.001 1017.13C111.083 1017.13 101.903 1017.39 92.4598 1017.91C83.2794 1018.44 75.5416 1019.09 69.2465 1019.88V1275.56L77.1154 1283.43H121.181C152.132 1283.43 175.083 1271.76 190.034 1248.42C205.248 1225.08 212.854 1190.73 212.854 1145.36C212.854 1117.83 209.444 1094.62 202.625 1075.74C195.805 1056.59 185.444 1042.04 171.542 1032.08C157.903 1022.11 140.723 1017.13 120.001 1017.13Z" fill="#335666"/>
<path d="M299.228 1289.33V1285.4L320.867 1280.68V1104.45H296.867V1100.13L364.147 1086.75V1149.29L367.294 1152.44C371.229 1143.53 375.032 1135.53 378.704 1128.45C382.376 1121.37 386.048 1115.47 389.721 1110.75C396.278 1102.35 403.098 1096.32 410.18 1092.65C417.524 1088.72 425.524 1086.75 434.18 1086.75C440.213 1086.75 445.721 1087.93 450.705 1090.29C455.951 1092.65 460.147 1096.19 463.295 1100.91C466.705 1105.37 468.41 1111.14 468.41 1118.22C468.41 1123.46 466.967 1128.32 464.082 1132.77C461.459 1137.23 457.656 1140.9 452.672 1143.79C447.688 1146.41 441.655 1147.72 434.573 1147.72C428.278 1147.72 422.639 1146.67 417.655 1144.57C412.672 1142.21 408.737 1139.07 405.852 1135.13C403.229 1131.2 401.917 1126.87 401.917 1122.15C401.917 1120.06 402.049 1118.35 402.311 1117.04C402.835 1115.47 403.229 1114.02 403.491 1112.71C403.753 1111.14 403.885 1109.96 403.885 1109.17C403.885 1107.34 403.229 1106.42 401.917 1106.42C399.294 1106.42 396.147 1108.78 392.475 1113.5C389.065 1117.96 385.13 1124.64 380.671 1133.56C377.786 1138.81 374.901 1145.1 372.015 1152.44C369.13 1159.78 366.507 1167.39 364.147 1175.26V1280.68L386.18 1285.4V1289.33H299.228Z" fill="#335666"/>
<path d="M592.868 1086.75C609.13 1086.75 623.557 1089.24 636.147 1094.23C648.999 1099.21 659.754 1106.42 668.409 1115.86C677.065 1125.04 683.623 1136.18 688.082 1149.29C692.541 1162.14 694.77 1176.57 694.77 1192.56C694.77 1207.51 692.541 1221.28 688.082 1233.87C683.623 1246.19 677.065 1257.07 668.409 1266.51C659.754 1275.69 649.131 1282.77 636.54 1287.76C623.95 1292.74 609.392 1295.23 592.868 1295.23C576.081 1295.23 561.261 1292.74 548.408 1287.76C535.818 1282.77 525.195 1275.69 516.539 1266.51C507.883 1257.07 501.326 1246.19 496.867 1233.87C492.67 1221.28 490.572 1207.51 490.572 1192.56C490.572 1176.57 492.932 1162.14 497.654 1149.29C502.375 1136.18 509.064 1125.04 517.72 1115.86C526.638 1106.42 537.392 1099.21 549.982 1094.23C562.572 1089.24 576.868 1086.75 592.868 1086.75ZM592.868 1091.86C580.015 1091.86 569.261 1096.19 560.605 1104.85C552.212 1113.5 545.785 1125.43 541.326 1140.64C537.13 1155.85 535.031 1173.16 535.031 1192.56C535.031 1206.46 536.08 1219.31 538.179 1231.11C540.539 1242.91 544.08 1253.27 548.802 1262.19C553.785 1271.1 559.949 1278.05 567.294 1283.04C574.638 1287.76 583.163 1290.12 592.868 1290.12C602.31 1290.12 610.573 1287.76 617.655 1283.04C624.999 1278.05 631.163 1271.23 636.147 1262.58C641.131 1253.66 644.803 1243.31 647.163 1231.51C649.524 1219.44 650.704 1206.46 650.704 1192.56C650.704 1177.88 649.524 1164.5 647.163 1152.44C644.803 1140.12 641.262 1129.5 636.54 1120.58C631.819 1111.4 625.786 1104.32 618.442 1099.34C611.097 1094.36 602.573 1091.86 592.868 1091.86Z" fill="#335666"/>
<path d="M730.319 1368V1364.07L752.352 1359.35V1106.42H727.958V1102.49L795.631 1086.75V1148.51L798.778 1151.65C801.664 1144.05 805.336 1136.45 809.795 1128.84C814.516 1120.97 820.024 1113.89 826.32 1107.6C832.615 1101.31 839.697 1096.32 847.566 1092.65C855.435 1088.72 864.222 1086.75 873.927 1086.75C889.927 1086.75 903.828 1091.08 915.632 1099.73C927.698 1108.39 937.009 1120.32 943.566 1135.53C950.124 1150.74 953.403 1168.04 953.403 1187.45C953.403 1210.53 949.468 1230.19 941.599 1246.45C933.993 1262.45 923.501 1274.64 910.124 1283.04C897.009 1291.16 882.189 1295.23 865.664 1295.23C854.123 1295.23 843.5 1293.26 833.795 1289.33C824.09 1285.13 815.959 1279.89 809.401 1273.59C803.106 1267.04 798.516 1260.35 795.631 1253.53V1359.35L819.631 1364.07V1368H730.319ZM849.139 1283.82C861.467 1283.82 871.959 1279.89 880.615 1272.02C889.533 1263.89 896.484 1253.01 901.468 1239.37C906.714 1225.74 909.337 1210.13 909.337 1192.56C909.337 1173.16 907.238 1156.9 903.042 1143.79C898.845 1130.41 892.943 1120.32 885.336 1113.5C877.73 1106.42 868.812 1102.88 858.582 1102.88C850.451 1102.88 843.107 1104.85 836.549 1108.78C830.254 1112.45 824.483 1117.7 819.238 1124.51C814.254 1131.33 809.795 1139.2 805.86 1148.11C801.926 1157.03 798.516 1166.73 795.631 1177.22V1219.71C795.631 1227.31 796.811 1234.92 799.172 1242.52C801.795 1250.12 805.336 1257.07 809.795 1263.37C814.516 1269.4 820.156 1274.38 826.713 1278.32C833.533 1281.99 841.008 1283.82 849.139 1283.82Z" fill="#335666"/>
<path d="M1049.99 1281.46L1071.63 1285.4V1289.33H984.675V1285.4L1006.71 1281.46V1013.98H982.315V1009.65L1049.99 996.28V1281.46Z" fill="#335666"/>
<path d="M1207.31 1086.75C1228.29 1086.75 1245.6 1090.95 1259.24 1099.34C1273.14 1107.73 1283.5 1119.14 1290.32 1133.56C1297.41 1147.72 1300.95 1163.98 1300.95 1182.34H1145.54V1178.4L1260.82 1174.08C1260.82 1156.77 1258.85 1142.08 1254.91 1130.02C1250.98 1117.7 1245.08 1108.25 1237.21 1101.7C1229.34 1095.14 1219.37 1091.86 1207.31 1091.86C1194.98 1091.86 1184.23 1095.41 1175.04 1102.49C1165.86 1109.57 1158.78 1120.19 1153.8 1134.35C1148.82 1148.51 1146.32 1166.08 1146.32 1187.06C1146.32 1199.38 1148.03 1211.18 1151.44 1222.46C1154.85 1233.47 1159.7 1243.44 1166 1252.35C1172.29 1261.01 1180.03 1267.83 1189.21 1272.81C1198.39 1277.79 1208.88 1280.28 1220.68 1280.28C1228.55 1280.28 1236.29 1279.23 1243.9 1277.14C1251.5 1275.04 1258.59 1272.02 1265.14 1268.09C1271.7 1263.89 1277.6 1258.91 1282.85 1253.14C1288.36 1247.11 1293.08 1240.16 1297.01 1232.29L1300.95 1236.23C1295.18 1247.76 1288.62 1257.34 1281.28 1264.94C1273.93 1272.55 1265.93 1278.58 1257.28 1283.04C1248.62 1287.49 1239.7 1290.64 1230.52 1292.48C1221.34 1294.31 1212.03 1295.23 1202.59 1295.23C1186.85 1295.23 1172.82 1292.48 1160.49 1286.97C1148.16 1281.46 1137.67 1274.12 1129.01 1264.94C1120.36 1255.5 1113.67 1244.62 1108.95 1232.29C1104.49 1219.97 1102.26 1206.86 1102.26 1192.96C1102.26 1176.96 1104.88 1162.54 1110.13 1149.69C1115.37 1136.58 1122.59 1125.3 1131.77 1115.86C1141.21 1106.42 1152.36 1099.21 1165.21 1094.23C1178.06 1089.24 1192.09 1086.75 1207.31 1086.75Z" fill="#335666"/>
<path d="M1390.18 1295.23C1376.28 1295.23 1366.18 1291.16 1359.88 1283.04C1353.85 1274.64 1350.84 1261.93 1350.84 1244.88V1100.52H1322.9V1096.59L1351.23 1092.65L1388.61 1028.14H1394.11V1089.9L1436.21 1096.59V1100.52H1394.11V1258.65C1394.11 1267.83 1395.43 1274.38 1398.05 1278.32C1400.67 1282.25 1404.21 1284.22 1408.67 1284.22C1413.39 1284.22 1417.85 1282.64 1422.05 1279.5C1426.51 1276.09 1430.97 1271.89 1435.43 1266.91L1437 1271.63C1434.38 1274.51 1431.23 1277.4 1427.56 1280.28C1424.15 1282.9 1420.34 1285.4 1416.15 1287.76C1412.21 1290.12 1408.02 1291.95 1403.56 1293.26C1399.36 1294.57 1394.9 1295.23 1390.18 1295.23Z" fill="#335666"/>
</svg>
