<svg width="121" height="126" viewBox="0 0 121 126" fill="none" xmlns="http://www.w3.org/2000/svg">
<path d="M54.6127 39.2941H63.0107C79.8068 47.5 89.3934 56.1506 91.0594 79.4118M54.6127 39.2941V27.4412H50.4136M54.6127 39.2941H37.8166M37.8166 39.2941H29.4185C12.6224 47.5 2.80667 56.1506 1.1406 79.4118M37.8166 39.2941V27.4412H42.0156M42.0156 27.4412V19.2353M42.0156 27.4412H50.4136M50.4136 27.4412V19.2353M50.4136 19.2353H42.0156M50.4136 19.2353H54.6127V13.3088M42.0156 19.2353H37.8166V7.38235H54.6127V13.3088M54.6127 13.3088C77.4296 8.29412 120.302 11.9412 109.258 66.6471M109.258 66.6471C101.896 70.902 97.294 95.8235 109.258 95.8235C127.665 95.8235 118.83 63 109.258 66.6471ZM91.0594 79.4118C91.9323 91.5989 89.046 106.694 79.8068 125H12.6224C3.38323 106.694 0.267697 91.5989 1.1406 79.4118M91.0594 79.4118H1.1406M15.3843 1L31.9503 9.20588M10.7826 13.3088H31.9503M31.9503 17.4118L19.986 21.0588" stroke="#B23A48" stroke-width="2" stroke-linecap="round"/>
</svg>
