<svg width="97" height="126" viewBox="0 0 97 126" fill="none" xmlns="http://www.w3.org/2000/svg">
<path d="M27.0224 101.811L26.0702 102.116L27.0224 101.811ZM31.7519 116.56L30.7996 116.865L31.7519 116.56ZM22.293 87.0614L21.3407 87.3667L22.293 87.0614ZM17.5635 72.3121L16.6113 72.6175L17.5635 72.3121ZM14.2235 86.3365L15.1757 86.0312L14.8698 85.0772L13.9164 85.3849L14.2235 86.3365ZM20.6727 106.449L20.9799 107.401L21.9297 107.094L21.625 106.144L20.6727 106.449ZM3.0625 101.405L4.01474 101.1L3.0625 101.405ZM49.2405 1.00773L49.2027 0.00844818L49.2405 1.00773ZM65.3047 5.72454H66.3047V4.72454H65.3047V5.72454ZM91.9744 119.674L92.5122 120.517L91.9744 119.674ZM88.4214 107.137L88.049 106.209L85.3616 107.288L88.1418 108.097L88.4214 107.137ZM83.7197 94.5589L82.7221 94.6274L82.7861 95.5589H83.7197V94.5589ZM73.5327 86.3044V85.3044H71.418L72.7597 86.9388L73.5327 86.3044ZM73.5327 95.345V96.345H73.7385L73.9277 96.2637L73.5327 95.345ZM52.8274 115.697L51.8375 115.839L52.8274 115.697ZM73.5327 108.137C74.085 108.137 74.5327 107.689 74.5327 107.137C74.5327 106.585 74.085 106.137 73.5327 106.137V108.137ZM65.3047 8.08298V9.08298H66.3047V8.08298H65.3047ZM32.7243 58.2308L14.8917 63.9859L15.5059 65.8892L33.3386 60.1341L32.7243 58.2308ZM24.9648 95.3876L42.7975 89.6325L42.1832 87.7292L24.3506 93.4843L24.9648 95.3876ZM34.4237 124.886L52.2564 119.131L51.6421 117.228L33.8095 122.983L34.4237 124.886ZM29.6943 110.137L47.5269 104.382L46.9127 102.478L29.08 108.234L29.6943 110.137ZM30.3394 108.88L27.9747 101.505L26.0702 102.116L28.4349 109.491L30.3394 108.88ZM27.9747 101.505L25.6099 94.1306L23.7055 94.7413L26.0702 102.116L27.9747 101.505ZM27.3296 102.762L45.1622 97.0071L44.5479 95.1038L26.7153 100.859L27.3296 102.762ZM35.0689 123.629L32.7041 116.254L30.7996 116.865L33.1644 124.24L35.0689 123.629ZM32.7041 116.254L30.3394 108.88L28.4349 109.491L30.7996 116.865L32.7041 116.254ZM49.2774 109.853L31.4448 115.608L32.059 117.511L49.8917 111.756L49.2774 109.853ZM20.2354 80.6384L38.068 74.8833L37.4538 72.98L19.6211 78.7351L20.2354 80.6384ZM25.6099 94.1306L23.2452 86.756L21.3407 87.3667L23.7055 94.7413L25.6099 94.1306ZM23.2452 86.756L20.8805 79.3814L18.976 79.9921L21.3407 87.3667L23.2452 86.756ZM22.6001 88.013L40.4328 82.2579L39.8185 80.3546L21.9858 86.1097L22.6001 88.013ZM20.8805 79.3814L18.5158 72.0068L16.6113 72.6175L18.976 79.9921L20.8805 79.3814ZM18.5158 72.0068L16.151 64.6322L14.2466 65.2429L16.6113 72.6175L18.5158 72.0068ZM35.089 65.6054L17.2564 71.3605L17.8707 73.2638L35.7033 67.5087L35.089 65.6054ZM13.9164 85.3849C11.3508 86.2128 9.98805 88.3586 9.48673 90.817C8.98937 93.256 9.30014 96.1197 10.1431 98.7484C10.9859 101.377 12.3979 103.886 14.2202 105.577C16.0574 107.282 18.4135 108.229 20.9799 107.401L20.3656 105.497C18.6967 106.036 17.0703 105.494 15.5807 104.111C14.0762 102.715 12.817 100.537 12.0475 98.1377C11.2781 95.7383 11.0354 93.2321 11.4464 91.2166C11.8535 89.2205 12.8609 87.8271 14.5306 87.2882L13.9164 85.3849ZM21.625 106.144L15.1757 86.0312L13.2712 86.6419L19.7205 106.754L21.625 106.144ZM14.8917 63.9859C9.25231 65.8059 5.59654 69.1204 3.32475 73.078C1.06744 77.0104 0.204491 81.5258 0.033268 85.7444C-0.138165 89.9682 0.381484 93.954 0.939746 96.8751C1.21937 98.3381 1.5099 99.5403 1.73134 100.379C1.8421 100.799 1.93569 101.128 2.00213 101.354C2.03536 101.467 2.06181 101.555 2.08024 101.615C2.08946 101.645 2.09667 101.668 2.10172 101.684C2.10425 101.692 2.10624 101.698 2.10767 101.703C2.10838 101.705 2.10895 101.707 2.10939 101.708C2.1096 101.709 2.10982 101.709 2.10993 101.71C2.11011 101.71 2.11026 101.711 3.0625 101.405C4.01474 101.1 4.01481 101.1 4.01485 101.1C4.01481 101.1 4.01482 101.1 4.01475 101.1C4.01461 101.1 4.01432 101.099 4.0139 101.097C4.01306 101.095 4.01166 101.09 4.00973 101.084C4.00585 101.072 3.99983 101.053 3.99181 101.026C3.97576 100.974 3.95173 100.895 3.92095 100.79C3.85938 100.581 3.77084 100.27 3.66513 99.8691C3.45365 99.0677 3.17392 97.9109 2.90419 96.4996C2.36376 93.6719 1.86838 89.8475 2.03162 85.8255C2.19507 81.7984 3.0165 77.6324 5.05929 74.0737C7.08761 70.5402 10.3477 67.5539 15.5059 65.8892L14.8917 63.9859ZM3.0625 101.405C2.11026 101.711 2.1104 101.711 2.11058 101.712C2.11069 101.712 2.11091 101.713 2.11113 101.713C2.11156 101.715 2.11215 101.717 2.11287 101.719C2.11433 101.723 2.11636 101.73 2.11898 101.738C2.12423 101.754 2.1318 101.777 2.14172 101.806C2.16156 101.866 2.19079 101.952 2.22949 102.063C2.30688 102.286 2.4222 102.608 2.57613 103.014C2.88388 103.825 3.34653 104.972 3.96967 106.324C5.21375 109.024 7.1081 112.566 9.70235 115.898C12.2934 119.225 15.6193 122.39 19.7397 124.265C23.8869 126.152 28.7843 126.706 34.4237 124.886L33.8095 122.983C28.6513 124.647 24.2681 124.128 20.5681 122.444C16.8414 120.748 13.7534 117.845 11.2804 114.669C8.81047 111.497 6.9904 108.101 5.78609 105.487C5.18502 104.183 4.73999 103.079 4.4461 102.305C4.2992 101.917 4.19021 101.613 4.1185 101.406C4.08265 101.303 4.05613 101.225 4.03886 101.173C4.03022 101.147 4.0239 101.128 4.01989 101.116C4.01788 101.11 4.01645 101.105 4.01559 101.103C4.01516 101.101 4.01487 101.1 4.01473 101.1C4.01466 101.1 4.01466 101.1 4.01463 101.1C4.01467 101.1 4.01474 101.1 3.0625 101.405ZM38.8576 13.7653H34.7436V15.7653H38.8576V13.7653ZM63.7374 13.7653H59.6234V15.7653H63.7374V13.7653ZM49.2027 0.00844818C44.6134 0.182186 41.7385 2.78394 40.0571 5.85344C38.3981 8.88214 37.8576 12.4197 37.8576 14.7653H39.8576C39.8576 12.656 40.3553 9.47203 41.8112 6.81428C43.2447 4.19733 45.5612 2.14774 49.2783 2.00702L49.2027 0.00844818ZM58.2628 5.22898C56.5545 2.23494 53.6846 -0.161226 49.2027 0.00844818L49.2783 2.00702C52.8371 1.87229 55.0891 3.70221 56.5257 6.22011L58.2628 5.22898ZM57.3942 6.72454H65.3047V4.72454H57.3942V6.72454ZM92.5122 120.517C95.2815 118.75 97.3085 116.04 96.9621 113.135C96.6089 110.173 93.884 107.687 88.7011 106.177L88.1418 108.097C93.0879 109.538 94.7699 111.642 94.9762 113.372C95.1892 115.159 93.9282 117.241 91.4366 118.831L92.5122 120.517ZM88.7938 108.065C90.1298 107.529 91.0645 106.26 91.5965 104.865C92.1374 103.446 92.3265 101.743 92.0526 100.095C91.7778 98.4401 91.0268 96.7921 89.637 95.5559C88.2379 94.3115 86.2748 93.5589 83.7197 93.5589V95.5589C85.8663 95.5589 87.3316 96.182 88.3078 97.0503C89.2934 97.9269 89.8647 99.1287 90.0797 100.422C90.2956 101.722 90.1418 103.066 89.7276 104.152C89.3046 105.262 88.6721 105.959 88.049 106.209L88.7938 108.065ZM84.7174 94.4903C84.5771 92.4495 83.9397 90.1274 82.1861 88.312C80.4156 86.4791 77.6451 85.3044 73.5327 85.3044V87.3044C77.2565 87.3044 79.4489 88.357 80.7476 89.7015C82.0631 91.0634 82.6012 92.8685 82.7221 94.6274L84.7174 94.4903ZM72.7597 86.9388C73.6196 87.9863 74.6031 89.6203 74.8803 91.1327C75.0162 91.8742 74.9695 92.5139 74.7317 93.0337C74.5028 93.5342 74.046 94.0358 73.1377 94.4263L73.9277 96.2637C75.2135 95.7108 76.0823 94.8891 76.5505 93.8656C77.0098 92.8614 77.0316 91.7766 76.8476 90.7722C76.4848 88.7928 75.2742 86.8498 74.3056 85.6699L72.7597 86.9388ZM73.5327 94.345C72.4168 94.345 71.1246 94.4518 69.8134 94.7097L70.1994 96.6721C71.3749 96.4409 72.5373 96.345 73.5327 96.345V94.345ZM69.8134 94.7097C67.3476 95.1948 64.6222 96.2536 62.9945 98.3465C61.2905 100.537 60.9845 103.59 62.8307 107.559L64.6441 106.715C63.0115 103.206 63.462 101.003 64.5732 99.5743C65.7606 98.0476 67.9091 97.1226 70.1994 96.6721L69.8134 94.7097ZM63.7146 106.137C61.3103 106.192 58.1644 106.728 55.6995 108.159C54.4562 108.881 53.347 109.855 52.6191 111.147C51.884 112.453 51.5766 114.017 51.8375 115.839L53.8173 115.555C53.6137 114.133 53.8603 113.019 54.3619 112.129C54.8708 111.225 55.681 110.483 56.7038 109.889C58.7712 108.688 61.5449 108.187 63.7602 108.137L63.7146 106.137ZM63.7374 108.137H73.5327V106.137H63.7374V108.137ZM64.3047 5.72454V8.08298H66.3047V5.72454H64.3047ZM60.6234 14.7653C60.6234 12.857 60.303 10.242 59.4086 7.74571L57.5258 8.42024C58.3304 10.666 58.6234 13.0475 58.6234 14.7653H60.6234ZM59.4086 7.74571C59.1011 6.88735 58.7233 6.03617 58.2628 5.22898L56.5257 6.22011C56.9203 6.91187 57.2516 7.65473 57.5258 8.42024L59.4086 7.74571ZM65.3047 7.08298H58.4672V9.08298H65.3047V7.08298ZM27.4746 21.0544V41.3959H29.4746V21.0544H27.4746ZM27.4746 41.3959V68.0266H29.4746V41.3959H27.4746ZM71.0064 41.3959V21.0544H69.0064V41.3959H71.0064ZM28.4746 42.3959H70.0064V40.3959H28.4746V42.3959ZM71.0064 68.0266V41.3959H69.0064V68.0266H71.0064ZM28.4746 69.0266H70.0064V67.0266H28.4746V69.0266ZM71.0064 95.6909V68.0266H69.0064V95.6909H71.0064ZM91.4366 118.831C89.5099 120.06 87.0857 120.288 84.511 120.288V122.288C87.1224 122.288 90.0626 122.079 92.5122 120.517L91.4366 118.831ZM51.8375 115.839C52.1578 118.074 53.53 119.708 55.2757 120.755C57.0068 121.793 59.1456 122.288 61.1797 122.288V120.288C59.4413 120.288 57.6722 119.86 56.3045 119.04C54.9513 118.228 54.0336 117.065 53.8173 115.555L51.8375 115.839ZM34.7436 13.7653C30.726 13.7653 27.4746 17.0318 27.4746 21.0544H29.4746C29.4746 18.1303 31.8366 15.7653 34.7436 15.7653V13.7653ZM63.7374 15.7653C66.6444 15.7653 69.0064 18.1303 69.0064 21.0544H71.0064C71.0064 17.0318 67.755 13.7653 63.7374 13.7653V15.7653ZM59.6234 13.7653H38.8576V15.7653H59.6234V13.7653ZM61.1797 122.288H84.511V120.288H61.1797V122.288ZM33.268 122.288H61.1797V120.288H33.268V122.288ZM27.4746 68.0266V106.339H29.4746V68.0266H27.4746Z" fill="#B23A48"/>
</svg>
