<svg width="115" height="126" viewBox="0 0 115 126" fill="none" xmlns="http://www.w3.org/2000/svg">
<path d="M93.9245 81.2925H92.3617C90.2372 81.2925 88.5149 83.0146 88.5149 85.1389V92.8315M93.9245 81.2925H99.4242M93.9245 81.2925V76.9654H96.6293M99.4242 81.2925V92.8315M99.4242 81.2925H103.091M103.091 81.2925H108.59M103.091 81.2925V92.8315M108.59 81.2925H110.153C112.278 81.2925 114 83.0146 114 85.1389V92.8315M108.59 81.2925V76.9654H105.886M96.6293 76.9654V72.8987C96.6293 72.2238 97.1764 71.6766 97.8514 71.6766C98.1889 71.6766 98.4625 71.4031 98.4625 71.0656V66.2978C98.4625 64.7543 99.7138 63.5031 101.257 63.5031C102.544 63.5031 103.628 64.3727 103.953 65.5563M96.6293 76.9654H105.886M105.886 76.9654V72.8987C105.886 72.2238 105.338 71.6766 104.663 71.6766C104.326 71.6766 104.052 71.4031 104.052 71.0656V66.2978C104.052 66.041 104.018 65.7924 103.953 65.5563M103.091 92.8315H99.4242M103.091 92.8315H114M99.4242 92.8315H88.5149M88.5149 92.8315V101.005M114 92.8315V115.429C114 117.553 112.278 119.275 110.153 119.275H92.3617C90.2372 119.275 88.5149 117.553 88.5149 115.429V101.005M52.9329 1C69.8291 1 81.5477 6.67228 89.5151 14.7827L81.0247 26.0595H97.6782C103.812 37.6675 105.326 50.857 104.751 59.8899C104.581 61.621 104.318 63.5234 103.953 65.5563M52.9309 1C36.0347 1 24.3161 6.67228 16.3487 14.7827L22.3389 26.0595H8.18566C2.05223 37.6675 0.538095 50.857 1.11266 59.8899C2.32883 72.2295 8.23056 93.2685 22.3389 108.29L29.8307 104.371L26.7092 112.504C33.5646 118.472 42.043 123.027 52.4313 124.954C52.7621 125.015 53.1036 125.015 53.4345 124.954C63.8227 123.027 72.2992 118.472 79.1547 112.504L75.4059 104.371L83.5249 108.29L88.5149 101.005M65.9793 96.8127C58.5913 102.971 48.2127 102.636 40.495 96.9132C39.1778 95.9364 39.1778 94.0101 40.495 93.0333C48.2127 87.3106 58.5913 86.9759 65.9793 93.1339C67.1365 94.0985 67.1365 95.8481 65.9793 96.8127ZM87.5803 61.7293C80.1923 67.8873 69.8137 67.5526 62.0961 61.8298C60.7788 60.8531 60.7788 58.9268 62.0961 57.95C69.8137 52.2272 80.1923 51.8926 87.5803 58.0505C88.7376 59.0151 88.7376 60.7647 87.5803 61.7293ZM44.1282 61.7293C36.7402 67.8873 26.3616 67.5526 18.644 61.8298C17.3267 60.8531 17.3267 58.9268 18.644 57.95C26.3616 52.2272 36.7402 51.8926 44.1282 58.0505C45.2854 59.0151 45.2854 60.7647 44.1282 61.7293Z" stroke="#B23A48" stroke-width="2"/>
</svg>
