<svg width="130" height="126" viewBox="0 0 130 126" fill="none" xmlns="http://www.w3.org/2000/svg">
<path d="M78.7202 95.8698H71.0435H55.69H40.3365M78.7202 95.8698H86.397V103.152M78.7202 95.8698H40.3365M78.7202 95.8698C79.8647 94.0603 79.9527 92.3305 79.4073 90.7524M40.3365 95.8698H36.4981M24.983 103.152V95.8698H32.6597H36.4981M24.983 103.152V110.435V115C24.983 120.523 29.4601 125 34.983 125H78.9176C83.0483 125 86.397 121.651 86.397 117.521V117.521M24.983 103.152H86.397M86.397 103.152V105.14M36.4981 95.8698C36.1597 91.5397 37.5035 82.9581 45.5864 83.273C51.6618 82.3545 62.188 77.7619 55.69 66.7397C59.3216 67.6969 64.7353 69.9103 68.2133 73.2824M71.0435 83.273H61.8314M71.0435 83.273C72.4693 79.2652 70.9332 75.9195 68.2133 73.2824M71.0435 83.273C73.8661 84.4942 78.1967 87.2496 79.4073 90.7524M86.397 117.521H120.076V110.435M86.397 117.521V110.337M120.076 90.7524L128 1H111.458M120.076 90.7524H79.4073M120.076 90.7524V110.435M68.2133 73.2824L61.8314 1H78.3735M120.076 110.435L107.496 110.398M86.397 110.337L94.9157 110.361L107.496 110.398M86.397 110.337V105.14M111.458 1H94.9157H78.3735M111.458 1H78.3735M107.496 110.398C104.381 104.561 96.3172 96.6945 86.397 105.14M12.7002 111.465L48.3599 60.2901L40.6503 55.725C36.1448 53.0572 30.3442 54.3166 27.3507 58.6126L3.15655 93.3331C-0.167403 98.1032 1.26326 104.693 6.26605 107.655L12.7002 111.465ZM78.3735 29.3429H111.458V75.4H78.3735V29.3429Z" stroke="#B23A48" stroke-width="2" stroke-linecap="round"/>
</svg>
