<svg width="84" height="96" viewBox="0 0 84 96" fill="none" xmlns="http://www.w3.org/2000/svg">
<path d="M73.0307 32.9704C73.0307 32.9704 73.0654 33.7538 73.1062 35.4515M10.9691 32.9704C10.9691 32.9704 10.9131 34.8433 10.8598 37.9327M73.23 45.7896C73.2528 52.4733 73.1999 59.7471 72.9462 64.8116M73.23 45.7896C73.2132 40.8655 73.1553 37.4957 73.1062 35.4515M73.23 45.7896C74.0904 44.8735 75.8833 43.5311 77.9481 43.2194M72.9462 64.8116C72.9462 64.8116 79.8355 57.3682 81.1965 54.4736C82.5575 51.5789 84.4628 45.3761 81.1965 43.722C80.1011 43.1673 78.99 43.0621 77.9481 43.2194M72.9462 64.8116C72.9462 64.8116 70.1986 75.0664 62.3969 83.7716C57.1783 89.5947 48.3445 95.0937 41.5715 94.9988C34.7984 95.0937 26.8217 89.5947 21.6031 83.7716C13.8014 75.0664 11.0538 64.8116 11.0538 64.8116M11.0538 64.8116C11.0538 64.8116 4.16453 57.3682 2.80354 54.4736C1.44255 51.5789 -0.462843 45.3761 2.80354 43.722C3.62931 43.3038 4.46397 43.1411 5.27118 43.1538M11.0538 64.8116C10.9164 62.0674 10.8377 58.6745 10.7982 55.0783M10.7982 55.0783C10.7648 52.0377 10.7595 48.8517 10.77 45.7896C9.80273 44.7597 7.65691 43.1911 5.27118 43.1538M10.7982 55.0783C10.7232 48.2465 10.7891 42.0233 10.8598 37.9327M47.7341 78.4579C47.0809 79.7812 43.9233 80.112 42.4263 80.112C40.9292 80.112 37.7717 79.7812 37.1184 78.4579M48.959 75.8194C46.5987 76.2498 44.0193 76.3903 42.4263 76.3903C40.8332 76.3903 38.2538 76.2498 35.8935 75.8194M48.959 75.8194C51.035 75.4408 52.9415 74.838 53.8586 73.9091M48.959 75.8194C48.959 75.8194 45.0817 73.9091 42.4263 73.9091C39.7709 73.9091 35.8935 75.8194 35.8935 75.8194M35.8935 75.8194C33.8175 75.4408 31.911 74.838 30.9939 73.9091M46.5137 65.2252C45.8605 66.2176 43.5181 66.4657 42.4285 66.4657C41.339 66.4657 38.9966 66.2176 38.3433 65.2252M73.1062 35.4515C48.3278 38.7597 36.3402 28.2838 33.4437 22.6324C30.3645 27.8703 21.5368 38.2635 10.8598 37.9327M5.27118 43.1538C0.64505 6.97082 22.1253 2.81797 33.4437 5.2644C51.1366 -2.23838 84.8075 -5.15128 77.9481 43.2194M48.1424 39.5099V43.3085C52.7698 42.0679 65.1276 40.7447 69.3739 43.722C68.5573 39.1732 60.5547 35.8709 48.1424 39.5099ZM66.9241 49.5114C64.066 52.2682 57.5333 56.9548 49.7756 50.2615C51.8171 47.4438 59.5748 43.3085 66.9241 49.5114ZM55.0835 50.2615C55.0835 46.306 60.7996 46.306 60.7996 50.2615C60.7996 54.3967 55.0835 54.3967 55.0835 50.2615ZM36.7101 39.5099V43.3085C32.0827 42.0679 19.7249 40.7447 15.4786 43.722C16.2952 39.1732 24.2978 35.8709 36.7101 39.5099ZM17.9284 49.5114C20.7865 52.2682 27.3192 56.9548 35.0769 50.2615C33.0354 47.4438 25.2778 43.3085 17.9284 49.5114ZM29.769 50.2615C29.769 46.306 24.0529 46.306 24.0529 50.2615C24.0529 54.3967 29.769 54.3967 29.769 50.2615Z" stroke="#335666" stroke-width="1.5" stroke-linecap="round"/>
</svg>
