<svg width="86" height="90" viewBox="0 0 86 90" fill="none" xmlns="http://www.w3.org/2000/svg">
<path d="M65.4737 48.4011C62.8947 50.8797 56.5579 55.4653 48.8947 49.5165C50.8141 48.1078 54.2898 45.1834 59.2105 45.96M65.4737 48.4011C64.8579 48.0034 64.243 47.6583 63.6316 47.361M65.4737 48.4011C66.4561 48.2233 68.3474 47.5702 68.0526 46.3805M59.2105 45.96C59.9337 46.0742 60.6723 46.2442 61.4211 46.4795M59.2105 45.96C60.193 45.7822 62.0842 45.1292 61.7895 43.9394M61.4211 46.4795C62.1497 46.7086 62.8881 46.9995 63.6316 47.361M61.4211 46.4795C62.4035 46.3018 64.2947 45.6487 64 44.459M63.6316 47.361C64.614 47.1832 66.5053 46.5301 66.2105 45.3404M20.5263 48.4011C23.1053 50.8797 29.4421 55.4653 37.1053 49.5165C35.1859 48.1078 31.7102 45.1834 26.7895 45.96M20.5263 48.4011C21.1421 48.0034 21.757 47.6583 22.3684 47.361M20.5263 48.4011C19.5439 48.2233 17.6526 47.5702 17.9474 46.3805M26.7895 45.96C26.0663 46.0742 25.3277 46.2442 24.5789 46.4795M26.7895 45.96C25.807 45.7822 23.9158 45.1292 24.2105 43.9394M24.5789 46.4795C23.8503 46.7086 23.1119 46.9995 22.3684 47.361M24.5789 46.4795C23.5965 46.3018 21.7053 45.6487 22 44.459M22.3684 47.361C21.386 47.1832 19.4947 46.5301 19.7895 45.3404M42.6295 18.657C33.419 18.1612 14.998 22.8955 14.998 45.7985M42.6295 18.657C51.8401 18.1612 70.2611 22.8955 70.2611 45.7984C70.2611 46.8074 70.233 47.7989 70.1786 48.7729M42.6295 18.657L43 1.55414M14.998 45.7985C14.998 46.8074 15.0261 47.7989 15.0805 48.7729M14.998 45.7985C14.998 63.0284 23.1994 75.166 30.3473 81.8631M70.1786 48.7729C71.9254 46.0463 75.2869 45.0548 76.8945 49.5165C78.5022 53.9781 72.0797 60.6705 67.4627 62.5295M70.1786 48.7729C69.8959 53.8353 68.9036 58.4242 67.4627 62.5295M67.4627 62.5295C62.888 75.563 53.7916 83.7234 48.5243 86.6965C47.6646 87.3162 44.4716 88.5556 42.6295 88.5556C40.7874 88.5556 37.5945 87.3162 36.7348 86.6965C34.9401 85.6835 32.7008 84.0682 30.3473 81.8631M15.0805 48.7729C13.3337 46.0463 9.9722 45.0549 8.36455 49.5165C6.75689 53.9781 13.1794 60.6705 17.7964 62.5295C16.3555 58.4242 15.3632 53.8354 15.0805 48.7729ZM46.3158 63.6449C45.7263 64.5372 43.6127 64.7603 42.6295 64.7603C41.6464 64.7603 39.5328 64.5372 38.9433 63.6449M43 1.55414C31.2105 0.562672 6.30526 5.86703 1 35.0162V81.8631H30.3473M43 1.55414C54.7895 0.562672 79.6947 5.86703 85 35.0162V81.8631H54.9118M50.3684 73.0489C49.765 73.301 48.8413 73.6662 47.7895 74.0099C46.2676 74.5072 44.4773 74.9595 43 74.9595C41.5227 74.9595 39.7324 74.5072 38.2105 74.0099C37.1587 73.6662 36.235 73.301 35.6316 73.0489M50.3684 73.0489C50.8309 72.8556 51.1053 72.7287 51.1053 72.7287C45.8 70.0517 43.4912 71.8612 43 73.1005C42.5088 71.8612 40.2 70.0517 34.8947 72.7287C34.8947 72.7287 35.1691 72.8556 35.6316 73.0489M50.3684 73.0489C50.3684 73.0489 46.4429 77.9339 43 77.9339C39.5571 77.9339 35.6316 73.0489 35.6316 73.0489M48.1579 39.8496V41.7086C52.3333 40.5932 61.6421 39.0317 65.4737 41.7086C64.3684 39.7257 59.3579 36.5778 48.1579 39.8496ZM54.4211 49.5165C54.4211 45.96 59.5789 45.96 59.5789 49.5165C59.5789 53.2345 54.4211 53.2345 54.4211 49.5165ZM37.8421 39.8496V41.7086C33.6667 40.5932 24.3579 39.0317 20.5263 41.7086C21.6316 39.7257 26.6421 36.5778 37.8421 39.8496ZM31.5789 49.5165C31.5789 45.96 26.4211 45.96 26.4211 49.5165C26.4211 53.2345 31.5789 53.2345 31.5789 49.5165Z" stroke="#B23A48" stroke-width="1.5" stroke-linecap="round"/>
</svg>
