<svg width="86" height="100" viewBox="0 0 86 100" fill="none" xmlns="http://www.w3.org/2000/svg">
<path d="M65.1195 61.4517C62.5824 63.8641 56.3483 68.3269 48.8094 62.5373C50.6977 61.1663 54.117 58.3201 58.9579 59.076M65.1195 61.4517C64.5138 61.0647 63.9088 60.7288 63.3073 60.4395M65.1195 61.4517C66.0861 61.2787 67.9466 60.6431 67.6567 59.4852M58.9579 59.076C59.6694 59.1871 60.396 59.3526 61.1326 59.5816M58.9579 59.076C59.9245 58.903 61.785 58.2674 61.4951 57.1095M61.1326 59.5816C61.8495 59.8045 62.5759 60.0877 63.3073 60.4395M61.1326 59.5816C62.0991 59.4086 63.9597 58.7731 63.6698 57.6151M63.3073 60.4395C64.2738 60.2665 66.1344 59.6309 65.8444 58.473M20.901 61.4517C23.4381 63.8641 29.6722 68.3269 37.2111 62.5373C35.3229 61.1663 31.9035 58.3201 27.0626 59.076M20.901 61.4517C21.5068 61.0647 22.1117 60.7288 22.7133 60.4395M20.901 61.4517C19.9345 61.2787 18.0739 60.6431 18.3639 59.4852M27.0626 59.076C26.3511 59.1871 25.6246 59.3526 24.8879 59.5816M27.0626 59.076C26.0961 58.903 24.2355 58.2674 24.5255 57.1095M24.8879 59.5816C24.1711 59.8045 23.4447 60.0877 22.7133 60.4395M24.8879 59.5816C23.9214 59.4086 22.0609 58.7731 22.3508 57.6151M22.7133 60.4395C21.7467 60.2665 19.8862 59.6309 20.1761 58.473M42.6458 32.5036C33.5847 32.0211 15.4623 36.6287 15.4623 58.9188C15.4623 59.9007 15.49 60.8657 15.5435 61.8136M42.6458 32.5036C51.707 32.0211 69.8293 36.6287 69.8293 58.9188C69.8293 59.9007 69.8017 60.8657 69.7482 61.8136M42.6458 32.5036L43.0103 15.8584M69.7482 61.8136C71.4667 59.16 74.7736 58.1951 76.3552 62.5373C77.9368 66.8795 71.6184 73.3929 67.0763 75.2021M69.7482 61.8136C69.4701 66.7406 68.4938 71.2066 67.0763 75.2021M67.0763 75.2021C64.1093 83.5648 59.2088 89.4187 54.7289 93.571C52.4136 95.7171 50.2106 96.2891 48.445 97.2751C47.5993 97.8782 44.4581 99.0843 42.6458 99.0843C40.8336 99.0843 37.6924 97.8782 36.8467 97.2751C35.081 96.2891 32.8781 95.7171 30.5627 93.571C26.0829 89.4187 21.1824 83.5648 18.2154 75.2021M15.5435 61.8136C13.825 59.16 10.5181 58.1951 8.93647 62.5373C7.35488 66.8795 13.6732 73.3929 18.2154 75.2021M15.5435 61.8136C15.8216 66.7406 16.7978 71.2067 18.2154 75.2021M46.2723 76.2877C45.6924 77.1561 43.613 77.3732 42.6458 77.3732C41.6786 77.3732 39.5993 77.1561 39.0194 76.2877M43.0103 15.8584C31.412 14.8934 6.91058 20.0559 1.69134 48.4251C-3.52789 76.7943 22.3471 83.7645 22.3471 83.7645M43.0103 15.8584C46.9119 15.5338 52.2738 15.9026 57.8705 17.6149C68.911 20.9929 80.8657 29.5992 84.3292 48.4251M50.2592 84.7163C49.6656 84.9617 48.7569 85.3171 47.7221 85.6517C46.2249 86.1356 44.4637 86.5758 43.0103 86.5758C41.5569 86.5758 39.7956 86.1356 38.2985 85.6517C37.2637 85.3171 36.355 84.9617 35.7613 84.7163M50.2592 84.7163C50.7142 84.5282 50.9841 84.4047 50.9841 84.4047C45.7649 81.7994 43.4935 83.5604 43.0103 84.7666C42.527 83.5604 40.2557 81.7994 35.0364 84.4047C35.0364 84.4047 35.3064 84.5282 35.7613 84.7163M50.2592 84.7163C50.2592 84.7163 46.3974 89.4707 43.0103 89.4707C39.6232 89.4707 35.7613 84.7163 35.7613 84.7163M84.3252 48.4251C89.5444 76.7943 62.9408 83.9115 62.9408 83.9115M28.15 17.6149C28.15 17.6149 22.3508 0.915665 43.0103 0.915665C63.6697 0.915665 58.0286 17.6637 58.0286 17.6637M57.8705 67.4964C59.0305 67.4608 62.9448 67.4964 64.757 64.2398M28.1499 67.4964C26.9899 67.4608 23.0756 67.4964 21.2634 64.2398M48.0845 53.1291V54.9384C52.1923 53.8528 61.3501 52.3331 65.1195 54.9384C64.0322 53.0085 59.1029 49.9448 48.0845 53.1291ZM54.2461 62.5373C54.2461 59.076 59.3204 59.076 59.3204 62.5373C59.3204 66.1558 54.2461 66.1558 54.2461 62.5373ZM37.936 53.1291V54.9384C33.8283 53.8528 24.6705 52.3331 20.901 54.9384C21.9884 53.0085 26.9176 49.9448 37.936 53.1291ZM31.7744 62.5373C31.7744 59.076 26.7002 59.076 26.7002 62.5373C26.7002 66.1558 31.7744 66.1558 31.7744 62.5373Z" stroke="#B23A48" stroke-width="1.5" stroke-linecap="round"/>
</svg>
