<svg width="86" height="82" viewBox="0 0 86 82" fill="none" xmlns="http://www.w3.org/2000/svg">
<path d="M66.0474 45.4706C63.4455 47.946 57.0523 52.5256 49.3209 46.5846C51.2574 45.1777 54.764 42.2571 59.7285 43.0328M66.0474 45.4706C65.4262 45.0734 64.8058 44.7288 64.1889 44.4319M66.0474 45.4706C67.0386 45.2931 68.9467 44.6409 68.6493 43.4527M59.7285 43.0328C60.4582 43.1468 61.2033 43.3166 61.9587 43.5516M59.7285 43.0328C60.7197 42.8552 62.6278 42.2031 62.3304 41.0148M61.9587 43.5516C62.6939 43.7803 63.4388 44.0709 64.1889 44.4319M61.9587 43.5516C62.9499 43.3741 64.858 42.7219 64.5606 41.5337M64.1889 44.4319C65.1801 44.2543 67.0882 43.6022 66.7908 42.4139M20.7001 45.4706C23.302 47.946 29.6952 52.5256 37.4266 46.5846C35.4901 45.1777 31.9835 42.2571 27.019 43.0328M20.7001 45.4706C21.3213 45.0734 21.9417 44.7288 22.5586 44.4319M20.7001 45.4706C19.7089 45.2931 17.8008 44.6409 18.0982 43.4527M27.019 43.0328C26.2893 43.1468 25.5442 43.3166 24.7888 43.5516M27.019 43.0328C26.0278 42.8552 24.1197 42.2031 24.4171 41.0148M24.7888 43.5516C24.0536 43.7803 23.3087 44.0709 22.5586 44.4319M24.7888 43.5516C23.7976 43.3741 21.8895 42.7219 22.1869 41.5337M22.5586 44.4319C21.5674 44.2543 19.6593 43.6022 19.9567 42.4139M43 15.7655C33.7075 15.2704 15.1225 19.9985 15.1225 42.8714C15.1225 43.8791 15.1509 44.8693 15.2058 45.8419M43 15.7655C52.2925 15.2704 70.8775 19.9985 70.8775 42.8714C70.8775 43.879 70.8491 44.8692 70.7942 45.8419M43 15.7655V1.17469M70.7942 45.8419C72.5566 43.119 75.9479 42.1288 77.5699 46.5846C78.934 50.3318 74.5681 55.6547 70.3745 58.3571M70.7942 45.8419C70.509 50.8978 69.5079 55.4806 68.0541 59.5806M68.0541 59.5806C68.7948 59.2853 69.5816 58.868 70.3745 58.3571M68.0541 59.5806C68.0541 59.5806 55.3589 80.8879 43.002 80.8889C30.644 80.8899 17.9459 59.5806 17.9459 59.5806M15.2058 45.8419C13.4434 43.119 10.052 42.1288 8.43008 46.5846C7.33303 49.5983 9.9423 53.6313 13.1874 56.5005M15.2058 45.8419C15.491 50.8978 16.4921 55.4806 17.9459 59.5806M17.9459 59.5806C16.9341 59.1773 16.7074 59.1435 15.6254 58.3571M46.719 57.724C46.1243 58.6151 43.9919 58.8379 43 58.8379C42.0081 58.8379 39.8757 58.6151 39.281 57.724M43 1.17469C31.1056 0.184519 11.6473 10.8289 6.94864 28.2806C2.24997 45.7324 6.94864 56.5005 6.94864 56.5005M43 1.17469C54.8944 0.184519 74.3527 10.8289 79.0514 28.2806C83.75 45.7324 79.0514 56.5005 79.0514 56.5005M6.94864 56.5005H13.1874M6.94864 56.5005L6.45535 58.3571M13.1874 56.5005C13.698 56.9519 15.0953 57.9718 15.6254 58.3571M6.45535 58.3571L1 78.8889H22.1869L15.6254 58.3571M6.45535 58.3571H15.6254M79.0514 56.5005H72.8126M79.0514 56.5005L79.5447 58.3571M79.5447 58.3571L85 78.8889H63.8131L70.3745 58.3571M79.5447 58.3571H70.3745M49.0844 67.3226C48.5863 67.5215 47.8239 67.8095 46.9556 68.0806C45.6993 68.4728 44.2215 68.8295 43.002 68.8295C41.7826 68.8295 40.3048 68.4728 39.0485 68.0806C38.1802 67.8095 37.4178 67.5215 36.9197 67.3226M49.0844 67.3226C49.4661 67.1701 49.6926 67.0701 49.6926 67.0701C45.3133 64.9587 43.4075 65.6432 43.002 66.6207C42.5966 65.6432 40.6908 64.9587 36.3115 67.0701C36.3115 67.0701 36.538 67.1701 36.9197 67.3226M49.0844 67.3226C49.0844 67.3226 45.8441 71.1755 43.002 71.1755C40.16 71.1755 36.9197 67.3226 36.9197 67.3226M48.5775 36.9304V38.787C52.7901 37.673 62.1817 36.1135 66.0474 38.787C64.9323 36.8066 59.8772 33.6628 48.5775 36.9304ZM54.8964 46.5846C54.8964 43.0328 60.1002 43.0328 60.1002 46.5846C60.1002 50.2977 54.8964 50.2977 54.8964 46.5846ZM38.17 36.9304V38.787C33.9574 37.673 24.5658 36.1135 20.7001 38.787C21.8152 36.8066 26.8703 33.6628 38.17 36.9304ZM31.8511 46.5846C31.8511 43.0328 26.6473 43.0328 26.6473 46.5846C26.6473 50.2977 31.8511 50.2977 31.8511 46.5846Z" stroke="#B23A48" stroke-width="1.5" stroke-linecap="round"/>
</svg>
