<svg width="86" height="98" viewBox="0 0 86 98" fill="none" xmlns="http://www.w3.org/2000/svg">
<path d="M78.0548 43.3847C88.1901 -0.71665 54.3113 -2.39673 42.9999 3.06338C31.6885 -2.39673 -2.19019 -0.716609 7.94506 43.3847M74.9917 45.4847C76.3178 44.0847 79.8064 41.7046 83.1525 43.3846C86.4985 45.0647 84.5467 51.3649 83.1525 54.305C81.7583 57.2451 74.701 64.8053 74.701 64.8053M74.9917 45.4847C75.0151 52.2733 74.9608 59.6613 74.701 64.8053M74.9917 45.4847C74.9917 45.4847 76.1502 40.3606 68.532 28.2642C60.9138 16.1678 48.6306 20.7039 43.4413 24.484C38.252 20.7039 25.0861 16.1678 17.4678 28.2642C9.84962 40.3606 11.0082 45.4847 11.0082 45.4847M74.701 64.8053C72.5052 70.8255 66.859 85.806 60.5852 89.1661C53.7802 92.8106 55.1478 96.7263 43.4367 97.1463C31.7255 96.7263 33.0931 92.8106 26.2882 89.1661C20.0143 85.806 14.3681 70.8255 12.1724 64.8053M11.0082 45.4847C9.68219 44.0847 6.19358 41.7046 2.84753 43.3846C-0.498522 45.0647 1.45334 51.3649 2.84753 54.305C4.24171 57.2451 12.1724 64.8053 12.1724 64.8053M11.0082 45.4847C10.9975 48.5949 11.003 51.8309 11.0372 54.9192C11.0776 58.5718 12.0315 62.018 12.1724 64.8053M48.874 81.1858C48.2048 82.5299 44.9703 82.8659 43.4367 82.8659C41.903 82.8659 38.6685 82.5299 37.9993 81.1858M50.1288 78.5059C47.7108 78.9431 45.0686 79.0858 43.4367 79.0858C41.8047 79.0858 39.1625 78.9431 36.7446 78.5059M50.1288 78.5059C52.2553 78.1214 54.2084 77.5091 55.1478 76.5657M50.1288 78.5059C50.1288 78.5059 46.1568 76.5657 43.4367 76.5657C40.7165 76.5657 36.7446 78.5059 36.7446 78.5059M36.7446 78.5059C34.618 78.1214 32.6649 77.5091 31.7255 76.5657M47.6238 64.3853C46.9546 65.3934 44.5551 65.6454 43.439 65.6454C42.3228 65.6454 39.9233 65.3934 39.2541 64.3853M43.4367 71.9456C54.4786 77.6577 58.6333 71.5255 59.3304 68.1654C58.6333 69.5655 56.4026 71.5255 53.0565 68.1654C49.7105 64.8053 45.2506 66.7654 43.439 68.1654C41.6273 66.7654 37.1674 64.8053 33.8214 68.1654C30.4753 71.5255 28.2446 69.5655 27.5475 68.1654C28.2446 71.5255 32.3993 77.6577 43.4413 71.9456M60.1669 56.4051C61.5055 56.3638 66.0225 56.405 68.1138 52.6249M26.7064 56.4051C25.3678 56.3638 20.8508 56.405 18.7595 52.6249M49.2922 39.1064V42.9647C54.0325 41.7046 66.6917 40.3606 71.0416 43.3847C70.205 38.7645 62.0072 35.4103 49.2922 39.1064ZM68.532 49.2649C65.6042 52.065 58.9121 56.8251 50.9653 50.0268C53.0565 47.1648 61.0034 42.9647 68.532 49.2649ZM56.4026 50.0268C56.4026 46.0092 62.2582 46.0092 62.2582 50.0268C62.2582 54.2269 56.4026 54.2269 56.4026 50.0268ZM37.5811 39.1064V42.9647C32.8408 41.7046 20.1816 40.3606 15.8318 43.3847C16.6683 38.7645 24.8661 35.4103 37.5811 39.1064ZM18.3413 49.2649C21.2691 52.065 27.9612 56.8251 35.908 50.0268C33.8168 47.1648 25.8699 42.9647 18.3413 49.2649ZM30.4707 50.0268C30.4707 46.0092 24.6151 46.0092 24.6151 50.0268C24.6151 54.2269 30.4707 54.2269 30.4707 50.0268Z" stroke="#335666" stroke-width="1.5" stroke-linecap="round"/>
</svg>
