<svg width="86" height="102" viewBox="0 0 86 102" fill="none" xmlns="http://www.w3.org/2000/svg">
<path d="M74.9917 52.2181C76.3178 50.8401 79.8064 48.4975 83.1525 50.1511C86.4985 51.8047 84.5467 58.0058 83.1525 60.8997C81.7583 63.7935 74.701 71.2348 74.701 71.2348M74.9917 52.2181C75.0151 58.8999 74.9608 66.1717 74.701 71.2348M74.9917 52.2181C85.8478 27.7445 76.8816 17.7677 71.0416 15.8384C71.0416 14.1848 72.4235 10.1886 73.951 8.39714C71.5941 6.08207 66.2891 7.43253 63.9312 8.39714L66.859 3.84966C64.1822 1.53458 58.7727 2.88505 56.4026 3.84966L57.2391 1.36923C54.8969 0.0463291 50.1288 2.60947 47.6238 3.84966L49.2922 1.36923C46.2808 0.377055 40.5089 2.60945 37.9993 3.84966L39.2541 1.36923C19.1778 2.69213 15.2741 15.1963 15.8318 21.283C-0.89849 20.6778 5.64515 41.6543 11.0082 52.2181M74.9917 52.2181C74.6509 45.8792 72.2963 32.4574 65.6042 29.4808C56.1238 33.2015 33.5658 37.997 19.1778 27.4138C19.0675 30.1698 18.0765 36.0126 14.9952 37.3355C11.914 38.6584 11.0534 47.8085 11.0082 52.2181M74.701 71.2348C74.54 74.3708 74.3001 76.6594 73.951 77.4359C72.278 81.1565 56.3842 99.3464 53.8746 100.173C51.3651 101 42.9999 101 42.9999 101C42.9999 101 34.6346 101 32.1251 100.173C29.6156 99.3464 13.7218 81.1565 12.0488 77.4359C11.3942 75.9802 11.1238 69.2089 11.0372 61.5042M11.0082 52.2181C9.68219 50.8401 6.19358 48.4975 2.84753 50.1511C-0.498522 51.8047 1.45334 58.0058 2.84753 60.8997C4.24171 63.7935 11.299 71.2348 11.299 71.2348C11.1582 68.4913 11.0776 65.0994 11.0372 61.5042M11.0082 52.2181C10.9975 55.2794 11.003 58.4645 11.0372 61.5042M48.874 84.8772C48.2048 86.2001 44.9703 86.5308 43.4367 86.5308C41.903 86.5308 38.6685 86.2001 37.9993 84.8772M50.1288 82.2394C47.7108 82.6697 45.0686 82.8102 43.4367 82.8102C41.8047 82.8102 39.1625 82.6697 36.7446 82.2394M50.1288 82.2394C52.2553 81.861 54.2084 81.2583 55.1478 80.3297M50.1288 82.2394C50.1288 82.2394 46.1568 80.3297 43.4367 80.3297C40.7165 80.3297 36.7446 82.2394 36.7446 82.2394M36.7446 82.2394C34.618 81.861 32.6649 81.2583 31.7255 80.3297M47.6238 71.6482C46.9546 72.6404 44.5551 72.8884 43.439 72.8884C42.3228 72.8884 39.9233 72.6404 39.2541 71.6482M49.2922 45.9402V49.7377C54.0325 48.4975 66.6917 47.1746 71.0416 50.1511C70.205 45.6036 62.0072 42.3022 49.2922 45.9402ZM68.532 55.9388C65.6042 58.6949 58.9121 63.3801 50.9653 56.6887C53.0565 53.8718 61.0034 49.7377 68.532 55.9388ZM56.4026 56.6887C56.4026 52.7343 62.2582 52.7343 62.2582 56.6887C62.2582 60.8228 56.4026 60.8228 56.4026 56.6887ZM37.5811 45.9402V49.7377C32.8408 48.4975 20.1816 47.1746 15.8318 50.1511C16.6683 45.6036 24.8661 42.3022 37.5811 45.9402ZM18.3413 55.9388C21.2691 58.6949 27.9612 63.3801 35.908 56.6887C33.8168 53.8718 25.8699 49.7377 18.3413 55.9388ZM30.4707 56.6887C30.4707 52.7343 24.6151 52.7343 24.6151 56.6887C24.6151 60.8228 30.4707 60.8228 30.4707 56.6887Z" stroke="#335666" stroke-width="1.5" stroke-linecap="round"/>
</svg>
